<?xml version="1.0"?>
<svg xmlns="http://www.w3.org/2000/svg" viewBox="0 0 512 512" width="512" height="512"><g id="Filled_outline" data-name="Filled outline"><path d="M208,200v96H160.44a72.008,72.008,0,0,1-71.56-64.05l-7.3-65.72A16.015,16.015,0,0,0,65.68,152H48V120H84.29a47.993,47.993,0,0,1,45.97,34.21L132,160l5.16,17.2A32,32,0,0,0,167.81,200Z" style="fill:#d0d24b"/><path d="M208,200v96H160.44a72.008,72.008,0,0,1-71.56-64.05l-7.3-65.72A15.866,15.866,0,0,0,79.53,160H132l5.16,17.2A32,32,0,0,0,167.81,200Z" style="fill:#79ad54"/><path d="M424,120h0a64,64,0,0,0-64,64v48a64,64,0,0,0,64,64h0a64,64,0,0,0,64-64V184A64,64,0,0,0,424,120Zm32,112a32,32,0,0,1-64,0V184a32,32,0,0,1,64,0Z" style="fill:#c7c934"/><path d="M416,216c0,41.72-20.97,79.05-53.98,104H197.56c-33.01-24.95-53.99-62.28-53.99-104a117.569,117.569,0,0,1,14.57-56c10.03-18.61,24.64-34.99,41.86-48H360c17.22,13.01,31.71,29.39,41.62,48A118.435,118.435,0,0,1,416,216Z" style="fill:#d0d24b"/><path d="M296.722,65.208a24,24,0,1,0-33.444,0A86.833,86.833,0,0,0,200,112H360A86.833,86.833,0,0,0,296.722,65.208Z" style="fill:#d0d24b"/><path d="M416,216c0,41.72-20.97,79.05-53.98,104H197.56c-33.01-24.95-53.99-62.28-53.99-104a117.569,117.569,0,0,1,14.57-56H401.62A118.435,118.435,0,0,1,416,216Z" style="fill:#7eb457"/><path d="M176,312v32h72a24,24,0,0,1,24,24h0a24,24,0,0,1-24,24H176v32h72a56,56,0,0,0,56-56h0a56,56,0,0,0-56-56Z" style="fill:#dbdbd9"/><path d="M232,304a308.553,308.553,0,0,1-9.87,77.44,308.632,308.632,0,0,1-28.98,72.49L192,456H80l-1.15-2.07q-5.115-9.195-9.56-18.7A308.514,308.514,0,0,1,40,304Z" style="fill:#e0e0de"/><path d="M232,304a308.553,308.553,0,0,1-9.87,77.44,308.632,308.632,0,0,1-28.98,72.49L192,456H80l-1.15-2.07q-5.115-9.195-9.56-18.7c53.94-24.98,103.7-66.61,141.79-131.23Z" style="fill:#dbdbd9"/><path d="M232,304c0,7.28-4.68,14.12-12.85,20-16.6,11.96-47.62,20-83.15,20s-66.55-8.04-83.15-20C44.68,318.12,40,311.28,40,304c0-22.09,42.98-40,96-40S232,281.91,232,304Z" style="fill:#cfcfcd"/><ellipse cx="136" cy="324" rx="83.15" ry="20" style="fill:#7eb457"/><path d="M24,456H248a0,0,0,0,1,0,0v0a32,32,0,0,1-32,32H56a32,32,0,0,1-32-32v0A0,0,0,0,1,24,456Z" style="fill:#e0e0de"/><path d="M360.984,487.016l.491.08c45.8,7.461,85.334-32.366,77.538-78.109h0c-45.742-7.8-85.569,31.74-78.108,77.538Z" style="fill:#5f9548"/><path d="M360.788,391.213l.392.064a54.1,54.1,0,0,0,62.03-62.487h0a54.1,54.1,0,0,0-62.486,62.03Z" style="fill:#5f9548"/><path d="M359.016,487.016l-.491.08c-45.8,7.461-85.334-32.366-77.537-78.108h0c45.742-7.8,85.569,31.74,78.108,77.538Z" style="fill:#7eb457"/><path d="M359.213,391.213l-.393.064a54.1,54.1,0,0,1-62.03-62.487h0a54.1,54.1,0,0,1,62.487,62.03Z" style="fill:#7eb457"/><path d="M424,112a72.251,72.251,0,0,0-39.082,11.541,164.739,164.739,0,0,0-18.621-16.78A95.184,95.184,0,0,0,309.67,60.039a32,32,0,1,0-59.34,0A95.18,95.18,0,0,0,193.7,106.761c-17.886,13.824-32.6,30.88-42.6,49.442a135.288,135.288,0,0,0-7.192,15.65l-5.984-19.941A55.648,55.648,0,0,0,84.29,112H48a8,8,0,0,0-8,8v32a8,8,0,0,0,8,8H65.68a7.989,7.989,0,0,1,7.949,7.113l7.3,65.717a80.714,80.714,0,0,0,1.5,8.94l15.6-3.54a64.409,64.409,0,0,1-1.2-7.163l-7.3-65.72A23.972,23.972,0,0,0,65.68,144H56V128H84.29A39.748,39.748,0,0,1,122.6,156.51l6.9,22.992a39.976,39.976,0,0,0,8.086,14.666A120.588,120.588,0,0,0,135.57,216a131.368,131.368,0,0,0,2.513,25.561l15.692-3.122A115.31,115.31,0,0,1,151.57,216a104.785,104.785,0,0,1,2.492-22.632A113.148,113.148,0,0,1,163.029,168H396.711A109.117,109.117,0,0,1,408,216a114.814,114.814,0,0,1-7.494,40.864,121.487,121.487,0,0,1-14.067,26.559,134.124,134.124,0,0,1-29.244,30.2l9.65,12.762a151.208,151.208,0,0,0,28.63-28.264A72,72,0,0,0,496,232V184A72.081,72.081,0,0,0,424,112ZM264.6,73.1a8,8,0,0,0,4.251-13.627,16,16,0,1,1,22.292,0A8,8,0,0,0,295.4,73.1,79.114,79.114,0,0,1,345.736,104H214.264A79.114,79.114,0,0,1,264.6,73.1ZM202.72,120H357.28a147.108,147.108,0,0,1,20.475,19.431A136.409,136.409,0,0,1,387.43,152H172.407A146.231,146.231,0,0,1,202.72,120Zm209.407,43.178A23.951,23.951,0,0,1,448,184v48a23.968,23.968,0,0,1-30.01,23.226A130.634,130.634,0,0,0,424,216,124.566,124.566,0,0,0,412.127,163.178ZM480,232a55.956,55.956,0,0,1-75.254,52.567,137.216,137.216,0,0,0,7.538-14.348A39.924,39.924,0,0,0,464,232V184a39.987,39.987,0,0,0-59.432-34.954,148.575,148.575,0,0,0-9.12-13.238A55.358,55.358,0,0,1,424,128a56.064,56.064,0,0,1,56,56Z"/><path d="M189.493,187.067l-14.777-6.134a94.775,94.775,0,0,0-5.375,17.479l15.682,3.176A78.738,78.738,0,0,1,189.493,187.067Z"/><path d="M171.106,242.119l15.429-4.238A82.645,82.645,0,0,1,183.57,216h-16A98.656,98.656,0,0,0,171.106,242.119Z"/><path d="M248,400a32,32,0,0,0,0-64h-9.637c.528-5.182.941-10.393,1.206-15.579.007-.145.013-.278.021-.421H248a47.788,47.788,0,0,1,14.028,2.093c.1.038.211.074.318.107a46.754,46.754,0,0,1,10.357,4.641l8.3-13.682a62.74,62.74,0,0,0-13.63-6.153c-.1-.035-.2-.068-.3-.1v0A63.781,63.781,0,0,0,248,304h-8c0-27.364-44.71-48-104-48S32,276.636,32,304c0,.282,0,.553.01.831A317.552,317.552,0,0,0,66.636,448H24a8,8,0,0,0-8,8,40.045,40.045,0,0,0,40,40H216a40.045,40.045,0,0,0,40-40,8,8,0,0,0-8-8H205.366q4.029-7.893,7.61-16H248a64.69,64.69,0,0,0,9.134-.648l-2.268-15.839A48.609,48.609,0,0,1,248,416H219.528q2.993-7.92,5.557-16Zm16-32a16,16,0,0,1-16,16H229.728c.048-.185.1-.368.146-.553A316.479,316.479,0,0,0,236.328,352H248A16.019,16.019,0,0,1,264,368ZM136,272c50.366,0,88,16.895,88,32,0,3.785-2.453,7.276-5.4,10.106C199.359,302.7,169.127,296,136,296s-63.36,6.7-82.6,18.106C50.453,311.277,48,307.785,48,304,48,288.9,85.634,272,136,272Zm66.928,52c-16.83,7.537-41.087,12-66.928,12s-50.095-4.462-66.927-12c16.83-7.538,41.086-12,66.927-12S186.1,316.463,202.928,324ZM216,480H56a24.042,24.042,0,0,1-22.629-16H238.629A24.042,24.042,0,0,1,216,480ZM84.718,448A301.515,301.515,0,0,1,49.259,331.245C68.12,344.256,100.386,352,136,352c35.63,0,67.909-7.751,86.763-20.77-.358,3.933-.794,7.855-1.306,11.74a299.769,299.769,0,0,1-7.07,36.458c-.912,3.509-1.877,6.966-2.877,10.3A298.378,298.378,0,0,1,200.348,420.9,299.482,299.482,0,0,1,187.283,448Z"/><path d="M440.356,401.1a74.789,74.789,0,0,0-65.985,20.879A78.1,78.1,0,0,0,368,429.135v-29.17c.719.025,1.437.044,2.153.044A62.144,62.144,0,0,0,431.1,327.446a8,8,0,0,0-6.542-6.542,61.405,61.405,0,0,0-54.185,17.145A62.97,62.97,0,0,0,360,351.6a62.97,62.97,0,0,0-10.369-13.551A61.412,61.412,0,0,0,295.446,320.9a8,8,0,0,0-6.542,6.542,61.363,61.363,0,0,0,7.087,40.931,47.558,47.558,0,0,1-12.741,32.2c-1.2.148-2.4.316-3.607.522a8,8,0,0,0-6.542,6.542,75.678,75.678,0,0,0,74.216,88.366h25.366A75.677,75.677,0,0,0,446.9,407.643,8,8,0,0,0,440.356,401.1Zm-90.509-1.092c.716,0,1.434-.019,2.153-.044v29.17a78.1,78.1,0,0,0-6.371-7.155,74.849,74.849,0,0,0-42.6-21.27,62.955,62.955,0,0,0,6.679-15.687A61.1,61.1,0,0,0,349.847,400.009Zm31.8-50.605a45.482,45.482,0,0,1,34.315-13.361,46.144,46.144,0,0,1-47.914,47.914A45.51,45.51,0,0,1,381.642,349.4Zm-77.6-13.361a46.144,46.144,0,0,1,47.914,47.914,46.144,46.144,0,0,1-47.914-47.914Zm47.8,143.8a59.656,59.656,0,0,1-63.677-63.676,59.656,59.656,0,0,1,63.677,63.676Zm62.825-17.481a58.856,58.856,0,0,1-46.5,17.481,59.656,59.656,0,0,1,63.676-63.676A58.865,58.865,0,0,1,414.664,462.357Z"/></g></svg>
